<?xml version="1.0" encoding="UTF-8"?>
<svg xmlns="http://www.w3.org/2000/svg" version="1.1" width="100" height="100" viewBox="0 0 100 100"><rect x="0" y="0" width="100" height="100" fill="#ffffff"/><g transform="scale(3.03)"><g transform="translate(0,0)"><path fill-rule="evenodd" d="M9 0L9 1L8 1L8 2L9 2L9 3L8 3L8 4L10 4L10 7L11 7L11 4L12 4L12 5L13 5L13 6L12 6L12 9L14 9L14 10L15 10L15 11L16 11L16 12L13 12L13 13L12 13L12 11L13 11L13 10L11 10L11 11L10 11L10 9L11 9L11 8L6 8L6 9L5 9L5 8L0 8L0 11L4 11L4 12L2 12L2 13L3 13L3 14L2 14L2 15L3 15L3 16L5 16L5 15L3 15L3 14L5 14L5 11L7 11L7 12L6 12L6 13L8 13L8 14L6 14L6 15L8 15L8 16L6 16L6 17L4 17L4 18L2 18L2 17L1 17L1 16L0 16L0 17L1 17L1 18L0 18L0 25L1 25L1 22L3 22L3 21L4 21L4 22L5 22L5 23L7 23L7 24L4 24L4 23L2 23L2 25L3 25L3 24L4 24L4 25L7 25L7 24L8 24L8 27L9 27L9 28L8 28L8 33L9 33L9 31L10 31L10 33L11 33L11 29L12 29L12 30L13 30L13 31L12 31L12 33L13 33L13 32L14 32L14 33L19 33L19 32L17 32L17 31L16 31L16 30L15 30L15 29L19 29L19 30L18 30L18 31L19 31L19 30L21 30L21 32L20 32L20 33L21 33L21 32L22 32L22 33L26 33L26 31L28 31L28 33L29 33L29 32L31 32L31 33L32 33L32 32L31 32L31 31L32 31L32 30L30 30L30 29L29 29L29 28L31 28L31 27L32 27L32 26L33 26L33 24L32 24L32 26L31 26L31 25L29 25L29 24L31 24L31 23L32 23L32 22L33 22L33 21L32 21L32 20L31 20L31 19L32 19L32 18L33 18L33 17L32 17L32 16L31 16L31 15L32 15L32 14L33 14L33 13L31 13L31 15L30 15L30 13L29 13L29 12L28 12L28 11L29 11L29 10L27 10L27 9L28 9L28 8L27 8L27 9L26 9L26 8L24 8L24 7L25 7L25 6L24 6L24 7L23 7L23 5L24 5L24 4L23 4L23 3L25 3L25 2L23 2L23 1L24 1L24 0L18 0L18 1L17 1L17 2L16 2L16 1L15 1L15 0L14 0L14 1L11 1L11 2L10 2L10 0ZM19 1L19 2L17 2L17 3L20 3L20 4L21 4L21 5L18 5L18 6L17 6L17 8L18 8L18 9L15 9L15 10L18 10L18 11L17 11L17 12L18 12L18 13L22 13L22 15L24 15L24 16L26 16L26 17L24 17L24 18L23 18L23 17L22 17L22 16L21 16L21 17L22 17L22 18L17 18L17 17L12 17L12 15L13 15L13 16L16 16L16 15L14 15L14 14L17 14L17 16L18 16L18 17L20 17L20 14L19 14L19 15L18 15L18 14L17 14L17 13L13 13L13 14L12 14L12 13L11 13L11 12L10 12L10 13L11 13L11 16L9 16L9 18L8 18L8 20L7 20L7 19L6 19L6 20L7 20L7 21L5 21L5 20L4 20L4 19L3 19L3 20L2 20L2 21L3 21L3 20L4 20L4 21L5 21L5 22L7 22L7 23L8 23L8 24L9 24L9 26L10 26L10 28L11 28L11 26L13 26L13 27L12 27L12 29L15 29L15 28L19 28L19 29L20 29L20 28L21 28L21 29L22 29L22 31L23 31L23 30L24 30L24 27L23 27L23 29L22 29L22 28L21 28L21 27L22 27L22 26L24 26L24 25L23 25L23 24L20 24L20 26L19 26L19 23L20 23L20 22L18 22L18 21L20 21L20 20L21 20L21 21L22 21L22 22L23 22L23 23L24 23L24 24L26 24L26 23L27 23L27 24L28 24L28 23L27 23L27 22L29 22L29 23L30 23L30 22L29 22L29 21L31 21L31 20L29 20L29 19L28 19L28 20L29 20L29 21L27 21L27 20L26 20L26 19L27 19L27 18L29 18L29 17L30 17L30 19L31 19L31 16L30 16L30 15L29 15L29 13L27 13L27 10L26 10L26 9L25 9L25 10L18 10L18 9L19 9L19 8L20 8L20 9L22 9L22 8L20 8L20 6L21 6L21 7L22 7L22 5L23 5L23 4L22 4L22 3L23 3L23 2L22 2L22 3L21 3L21 2L20 2L20 1ZM12 2L12 4L13 4L13 3L14 3L14 5L17 5L17 4L15 4L15 3L14 3L14 2ZM10 3L10 4L11 4L11 3ZM8 5L8 7L9 7L9 5ZM13 6L13 8L16 8L16 6L15 6L15 7L14 7L14 6ZM18 6L18 7L19 7L19 6ZM29 8L29 9L30 9L30 8ZM31 8L31 10L33 10L33 9L32 9L32 8ZM1 9L1 10L3 10L3 9ZM6 9L6 10L7 10L7 11L8 11L8 10L9 10L9 9ZM18 11L18 12L20 12L20 11ZM21 11L21 12L22 12L22 13L23 13L23 14L24 14L24 13L26 13L26 14L25 14L25 15L26 15L26 16L27 16L27 17L26 17L26 18L25 18L25 19L23 19L23 18L22 18L22 19L21 19L21 20L22 20L22 21L23 21L23 22L24 22L24 23L25 23L25 22L27 22L27 21L26 21L26 20L25 20L25 19L26 19L26 18L27 18L27 17L29 17L29 15L27 15L27 13L26 13L26 11L25 11L25 12L22 12L22 11ZM30 11L30 12L31 12L31 11ZM0 12L0 13L1 13L1 12ZM6 17L6 18L7 18L7 17ZM10 17L10 18L9 18L9 19L11 19L11 20L9 20L9 21L10 21L10 23L11 23L11 21L12 21L12 22L13 22L13 23L12 23L12 25L13 25L13 24L14 24L14 25L17 25L17 26L15 26L15 27L14 27L14 28L15 28L15 27L18 27L18 25L17 25L17 23L16 23L16 22L14 22L14 21L12 21L12 19L15 19L15 20L16 20L16 21L18 21L18 20L19 20L19 19L18 19L18 20L16 20L16 18L11 18L11 17ZM1 18L1 19L2 19L2 18ZM23 20L23 21L24 21L24 22L25 22L25 21L24 21L24 20ZM14 23L14 24L16 24L16 23ZM25 25L25 28L28 28L28 25ZM26 26L26 27L27 27L27 26ZM26 29L26 30L25 30L25 31L24 31L24 32L25 32L25 31L26 31L26 30L27 30L27 29ZM28 30L28 31L29 31L29 30ZM14 31L14 32L16 32L16 31ZM0 0L0 7L7 7L7 0ZM1 1L1 6L6 6L6 1ZM2 2L2 5L5 5L5 2ZM26 0L26 7L33 7L33 0ZM27 1L27 6L32 6L32 1ZM28 2L28 5L31 5L31 2ZM0 26L0 33L7 33L7 26ZM1 27L1 32L6 32L6 27ZM2 28L2 31L5 31L5 28Z" fill="#000000"/></g></g></svg>
